<svg xmlns="http://www.w3.org/2000/svg" version="1.1" xmlns:xlink="http://www.w3.org/1999/xlink" xmlns:svgjs="http://svgjs.dev/svgjs" width="1000" height="623" viewBox="0 0 1000 623"><g transform="matrix(1,0,0,1,-0.6060606060606233,0.2522267206477409)"><svg viewBox="0 0 396 247" data-background-color="#333366" preserveAspectRatio="xMidYMid meet" height="623" width="1000" xmlns="http://www.w3.org/2000/svg" xmlns:xlink="http://www.w3.org/1999/xlink"><g id="tight-bounds" transform="matrix(1,0,0,1,0.2400000000000091,-0.09999999999999432)"><svg viewBox="0 0 395.52 247.2" height="247.2" width="395.52"><g><svg></svg></g><g><svg viewBox="0 0 395.52 247.2" height="247.2" width="395.52"><g transform="matrix(1,0,0,1,75.54432,80.50781036533559)"><svg viewBox="0 0 244.43135999999998 86.1843792693288" height="86.1843792693288" width="244.43135999999998"><g><svg viewBox="0 0 244.43135999999998 86.1843792693288" height="86.1843792693288" width="244.43135999999998"><g><svg viewBox="0 0 244.43135999999998 86.1843792693288" height="86.1843792693288" width="244.43135999999998"><g><svg viewBox="0 0 244.43135999999998 86.1843792693288" height="86.1843792693288" width="244.43135999999998"><g><svg viewBox="0 0 244.43135999999998 86.1843792693288" height="86.1843792693288" width="244.43135999999998"><g><svg viewBox="0 0 244.43135999999998 86.1843792693288" height="86.1843792693288" width="244.43135999999998"><g transform="matrix(1,0,0,1,0,0)"><svg width="244.43135999999998" viewBox="2.4000000953674316 -40.95000076293945 117.68999481201172 41.5" height="86.1843792693288" data-palette-color="#ffff33"><path d="M6.55-2.95L6.55-34.05 2.5-34.65 2.5-37.15 16.85-37.15 16.85-34.65 11.9-34.05 11.9-2.95 24.8-3.4 27.75-11.8 30.8-11.35 29.05 0 2.4 0 2.4-2.45 6.55-2.95ZM56.7 0.45Q55.3 0.45 54.62-0.1 53.95-0.65 53.95-1.9L53.95-1.9 53.95-3.6Q52.3-1.95 49.82-0.7 47.35 0.55 44.85 0.55L44.85 0.55Q40.2 0.55 38.25-1.95 36.3-4.45 36.3-10.2L36.3-10.2 36.3-24.7 33.5-25.5 33.5-27.7 40.5-28.35 40.55-28.35 41.5-27.75 41.5-10.6Q41.5-7.7 41.92-6.08 42.35-4.45 43.42-3.68 44.5-2.9 46.55-2.9L46.55-2.9Q48.55-2.9 50.3-3.75 52.05-4.6 53.35-5.75L53.35-5.75 53.35-24.7 49.75-25.5 49.75-27.7 57.35-28.35 57.4-28.35 58.55-27.75 58.55-2.55 61.55-2.55 61.5-0.3Q60.1 0.05 59.07 0.25 58.05 0.45 56.7 0.45L56.7 0.45ZM68.2-2.9L68.2-37.3 64.3-37.85 64.3-40 72.25-40.95 72.3-40.95 73.4-40.2 73.4-15.75 73.3-12.8 84.84-24.75 81.09-25.45 81.09-27.75 93.2-27.75 93.2-25.45 89.25-24.75 81.9-17.6 91.4-2.85 94.5-2.45 94.5 0 82.34 0 82.34-2.45 85.5-2.9 78.45-14.5 73.3-9.4 73.4-6.85 73.4-2.9 76.95-2.45 76.95 0 65.05 0 65.05-2.45 68.2-2.9ZM95.54-7.5Q95.54-12.2 100.24-14.43 104.94-16.65 112.14-16.8L112.14-16.8 112.14-18.2Q112.14-20.55 111.64-21.9 111.14-23.25 109.92-23.88 108.69-24.5 106.44-24.5L106.44-24.5Q103.89-24.5 101.87-23.78 99.84-23.05 97.84-22L97.84-22 96.59-24.6Q97.24-25.15 98.99-26.05 100.74-26.95 103.04-27.65 105.34-28.35 107.64-28.35L107.64-28.35Q111.19-28.35 113.27-27.38 115.34-26.4 116.24-24.25 117.14-22.1 117.14-18.5L117.14-18.5 117.14-2.45 120.09-2.45 120.09-0.25Q119.09 0 117.57 0.25 116.04 0.5 114.89 0.5L114.89 0.5Q113.49 0.5 112.99 0.08 112.49-0.35 112.49-1.8L112.49-1.8 112.49-3.45Q110.99-1.95 108.82-0.7 106.64 0.55 103.89 0.55L103.89 0.55Q100.29 0.55 97.92-1.53 95.54-3.6 95.54-7.5L95.54-7.5ZM106.04-2.85Q107.34-2.85 109.04-3.65 110.74-4.45 112.14-5.55L112.14-5.55 112.14-14.15Q106.69-14.15 103.92-12.48 101.14-10.8 101.14-8.1L101.14-8.1Q101.14-5.4 102.47-4.13 103.79-2.85 106.04-2.85L106.04-2.85Z" opacity="1" transform="matrix(1,0,0,1,0,0)" fill="#ffff33" class="undefined-text-0" data-fill-palette-color="primary" id="text-0"></path></svg></g></svg></g></svg></g></svg></g></svg></g></svg></g></svg></g><g><path d="M245.816 0c68.262 0 123.6 55.338 123.6 123.6 0 68.262-55.338 123.6-123.6 123.6-49.19 0-91.669-28.735-111.566-70.335h4.325c19.6 39.386 60.26 66.449 107.241 66.449 66.116 0 119.714-53.598 119.714-119.714 0-66.116-53.598-119.714-119.714-119.714-46.98 0-87.64 27.062-107.241 66.449l-4.325 0c19.897-41.6 62.376-70.335 111.566-70.335z" fill="#ffff33" stroke="transparent" data-fill-palette-color="tertiary"></path></g></svg></g><defs></defs></svg><rect width="395.52" height="247.2" fill="none" stroke="none" visibility="hidden"></rect></g></svg></g></svg>